<?xml version="1.0" standalone="no"?>
<!DOCTYPE svg PUBLIC "-//W3C//DTD SVG 20010904//EN"
 "http://www.w3.org/TR/2001/REC-SVG-20010904/DTD/svg10.dtd">
<svg version="1.0" xmlns="http://www.w3.org/2000/svg"
 width="1025.000000pt" height="1025.000000pt" viewBox="0 0 1025.000000 1025.000000"
 preserveAspectRatio="xMidYMid meet">
<metadata>
Created by potrace 1.11, written by Peter Selinger 2001-2013
</metadata>
<g transform="translate(0.000000,1025.000000) scale(0.100000,-0.100000)"
fill="#000000" stroke="none">
<path d="M5209 10246 c-2 -2 -51 -6 -109 -10 -514 -33 -1172 -205 -1633 -426
-57 -27 -95 -40 -110 -36 -112 27 -534 28 -737 0 -358 -49 -698 -157 -975
-312 -122 -68 -146 -82 -224 -134 -383 -258 -721 -639 -967 -1093 -74 -136
-164 -322 -164 -338 0 -7 -4 -17 -9 -23 -13 -13 -90 -215 -144 -374 -46 -137
-91 -302 -102 -375 -3 -23 -8 -52 -10 -65 -26 -128 -26 -570 0 -670 2 -8 6
-37 10 -65 37 -300 196 -758 399 -1150 92 -177 254 -458 267 -463 5 -2 9 -8 9
-13 0 -6 18 -36 40 -69 22 -32 44 -78 50 -102 70 -287 97 -388 140 -520 188
-582 487 -1120 891 -1603 83 -99 389 -412 482 -493 170 -148 373 -303 542
-413 117 -77 252 -159 261 -159 3 0 18 -9 33 -19 45 -32 335 -174 478 -234
140 -59 383 -146 498 -178 116 -32 338 -87 378 -95 21 -3 53 -17 73 -30 19
-13 37 -24 39 -24 2 0 49 -29 105 -65 290 -188 677 -381 1002 -498 109 -40
339 -108 408 -121 14 -3 36 -7 50 -11 318 -70 676 -75 970 -14 223 47 473 130
745 249 370 161 662 344 959 600 57 50 219 217 286 295 236 278 431 644 530
992 30 103 34 119 44 171 3 13 7 31 10 40 3 9 7 33 10 52 3 19 10 62 16 95 27
154 38 319 34 505 -3 165 -5 196 -19 297 -4 34 2 56 38 135 211 450 345 934
412 1483 26 219 27 784 2 1005 -10 80 -19 154 -21 165 -2 11 -7 45 -11 75 -4
30 -9 64 -11 75 -2 11 -7 34 -10 50 -94 523 -291 1062 -559 1530 -92 162 -275
429 -397 582 -630 787 -1457 1341 -2413 1618 -131 37 -315 82 -410 99 -79 15
-275 46 -315 50 -25 3 -67 8 -95 11 -27 3 -68 8 -90 10 -48 7 -670 17 -676 11z
m-2740 -1059 c-19 -17 -60 -52 -90 -77 -146 -121 -376 -350 -524 -521 -465
-541 -808 -1194 -990 -1884 -69 -262 -123 -571 -141 -814 -3 -46 -8 -91 -9
-100 -2 -9 -4 -54 -5 -101 0 -54 -4 -79 -9 -70 -29 50 -135 451 -146 555 -2
17 -6 51 -10 78 -4 26 -8 64 -10 85 -5 52 -6 323 -1 347 2 11 7 51 11 88 7 76
7 75 29 172 74 323 295 858 459 1112 15 24 27 45 27 47 0 4 89 137 107 161 4
6 28 37 52 70 128 174 332 380 501 507 211 158 446 276 710 356 36 11 67 20
70 21 3 0 -11 -14 -31 -32z m6736 -6749 c-54 -181 -122 -340 -211 -494 -341
-590 -946 -1031 -1802 -1313 -364 -120 -634 -143 -1017 -86 -175 26 -566 134
-600 166 -5 5 31 9 90 10 55 0 107 2 116 4 9 1 60 6 114 10 53 4 107 8 119 10
11 2 74 11 138 20 535 72 1096 257 1587 523 67 37 130 72 140 77 9 6 45 28 81
49 192 116 437 296 620 452 132 114 367 345 461 454 35 41 72 83 82 95 11 11
39 46 64 78 25 31 47 57 49 57 1 0 -13 -51 -31 -112z"/>
</g>
</svg>
